# xmcd CD database file generated by OrangeCD 5.2
#
# Track frame offsets:
#	150
#	9080
#	24750
#	34552
#	49580
#	62845
#	77945
#	89847
#	100195
#	117000
#	131257
#	144230
#
# Disc length: 2072 seconds
#
# Revision: 3
# Processed by: cddbd v1.5.1PL0 Copyright (c) Steve Scherf et al.
# Submitted via: OrangeCD 5.2
#
DISCID=8808160c
DTITLE=Hellbillies - Sylvspente Boots
DYEAR=1992
DGENRE=Country
TTITLE0=Nyskild far
TTITLE1=Ho Birgjit Lien
TTITLE2=Biologisk bonde
TTITLE3=Eitt skot te
TTITLE4=Heime høvde 'kji eg
TTITLE5=Eg rykte upp mine røter
TTITLE6=Aksjon på Ål
TTITLE7=Goffa min va handelskar
TTITLE8=Heite Hilde
TTITLE9=Rakafisk
TTITLE10=Ikkje grav meg ned
TTITLE11=Arket mitt æ kvitt
EXTD=
EXTT0=
EXTT1=
EXTT2=
EXTT3=
EXTT4=
EXTT5=
EXTT6=
EXTT7=
EXTT8=
EXTT9=
EXTT10=
EXTT11=
PLAYORDER=
